#!OML:ASF F:\VICON\USERDATA\INSTALL\rory3\rory3.ASF
:FULLY-SPECIFIED
:DEGREES
903
root -2.69067 18.9545 9.13343 14.6885 -7.14914 -0.615029
lowerback -3.94814 0.70949 4.76201
upperback -5.47236 0.861421 -0.277367
thorax -3.37158 0.245287 -2.94543
lowerneck -12.5238 -4.93821 -8.59907
upperneck 23.883 -6.17124 4.58427
head 10.0845 -3.13492 2.27961
rclavicle -2.10588e-015 1.78906e-014
rhumerus -51.7058 14.3335 -84.3141
rradius 50.374
rwrist 9.62861
rhand -27.7485 -47.1944
rfingers 7.12502
rthumb -1.14297 -77.1711
lclavicle -2.10588e-015 1.78906e-014
lhumerus -44.9731 -13.1944 82.6708
lradius 72.2333
lwrist -2.09508
lhand -34.0936 -46.2964
lfingers 7.12502
lthumb -7.26995 -16.4413
rfemur -30.3178 7.69842 18.1455
rtibia 33.1779
rfoot 11.6592 -7.72196
rtoes -16.7958
lfemur -51.3945 7.35159 -5.94952
ltibia 84.3127
lfoot -9.62363 15.85
ltoes -5.57887
904
root -2.63956 19.0459 9.09181 15.601 -7.09171 -0.299885
lowerback -4.30259 0.498509 4.14309
upperback -5.95184 0.581329 -0.241735
thorax -3.6998 0.113163 -2.56384
lowerneck -12.4118 -4.80363 -8.37157
upperneck 24.1688 -5.99634 4.34825
head 10.1368 -3.06486 2.18497
rclavicle 7.61594e-015 9.34288e-015
rhumerus -51.923 15.3171 -84.9896
rradius 50.1243
rwrist 9.15456
rhand -28.4856 -46.7571
rfingers 7.12502
rthumb -1.85492 -76.7288
lclavicle 7.61594e-015 9.34288e-015
lhumerus -45.3101 -12.8068 82.5505
lradius 71.1233
lwrist -1.87571
lhand -33.9037 -46.0343
lfingers 7.12502
lthumb -7.08661 -16.1729
rfemur -31.9548 6.92145 17.8037
rtibia 34.0878
rfoot 11.6236 -8.22471
rtoes -19.5239
lfemur -51.6325 7.05887 -6.2588
ltibia 81.9146
lfoot -8.31625 15.7118
ltoes -4.97048
905
root -2.58962 19.1289 9.05271 16.5449 -6.80695 0.073845
lowerback -4.79898 0.238729 3.56652
upperback -6.39758 0.229791 -0.230814
thorax -3.91316 -0.0504345 -2.23225
lowerneck -12.1972 -4.70585 -8.25996
upperneck 24.2851 -5.89366 4.28818
head 10.1237 -3.01922 2.16343
rclavicle 2.42145e-014 -1.76918e-014
rhumerus -52.1244 15.8212 -85.467
rradius 49.9615
rwrist 9.04563
rhand -29.052 -46.7218
rfingers 7.12502
rthumb -2.40189 -76.688
lclavicle 2.42145e-014 -1.76918e-014
lhumerus -45.6976 -12.4998 82.4184
lradius 70.2936
lwrist -1.51353
lhand -33.9306 -45.2706
lfingers 7.12502
lthumb -7.11262 -15.4101
rfemur -33.7083 6.09078 17.4203
rtibia 35.1858
rfoot 11.8781 -8.25056
rtoes -18.8797
lfemur -51.9591 6.54889 -6.59349
ltibia 79.4466
lfoot -7.13453 15.3559
ltoes -4.94906
906
root -2.49165 19.2901 9.18397 14.8181 -9.61131 -0.465619
lowerback -4.53882 1.1302 4.55547
upperback -5.56067 1.39079 -0.42693
thorax -3.08667 0.518943 -2.9668
lowerneck -12.0394 -4.61224 -8.19725
upperneck 24.3379 -5.79175 4.28451
head 10.1023 -2.97042 2.16841
rclavicle -1.03461e-014 -1.76918e-014
rhumerus -52.1712 16.0334 -85.7812
rradius 49.8008
rwrist 9.14436
rhand -28.2466 -47.9173
rfingers 7.12502
rthumb -1.62406 -77.8909
lclavicle -1.03461e-014 -1.76918e-014
lhumerus -45.9961 -12.2522 82.3249
lradius 69.4493
lwrist -1.16355
lhand -34.2152 -44.6238
lfingers 7.12502
lthumb -7.38731 -14.7727
rfemur -31.8652 7.06527 17.5716
rtibia 35.925
rfoot 11.1192 -6.5916
rtoes -18.8406
lfemur -46.6584 7.77712 -6.66756
ltibia 76.3466
lfoot -7.42284 15.8023
ltoes -4.94822
907
root -2.43079 19.3639 9.17976 15.0906 -9.9701 -0.442078
lowerback -4.78487 1.14694 4.55781
upperback -5.64581 1.40012 -0.479246
thorax -3.03615 0.521736 -3.01826
lowerneck -11.797 -4.51046 -8.01191
upperneck 24.2702 -5.68823 4.20337
head 10.0145 -2.91871 2.1266
rclavicle 2.15961e-014 -7.15625e-015
rhumerus -52.1541 16.1243 -86.1675
rradius 49.6448
rwrist 9.25157
rhand -27.6543 -48.7536
rfingers 7.12502
rthumb -1.05202 -78.7307
lclavicle 2.15961e-014 -7.15625e-015
lhumerus -46.077 -12.1162 82.2268
lradius 68.2548
lwrist -0.692926
lhand -34.6533 -44.5064
lfingers 7.12502
lthumb -7.81018 -14.6707
rfemur -32.7192 6.76107 17.4181
rtibia 36.9212
rfoot 10.5393 -5.98252
rtoes -20
lfemur -45.6975 7.53162 -6.75793
ltibia 73.6614
lfoot -6.17794 15.1671
ltoes -5.5557
908
root -2.37434 19.4279 9.17907 15.2362 -10.3851 -0.471094
lowerback -4.98736 1.1607 4.54337
upperback -5.65458 1.4072 -0.503549
thorax -2.93119 0.527328 -3.03122
lowerneck -11.6263 -4.37532 -7.77909
upperneck 24.1903 -5.54103 4.12296
head 9.93182 -2.84115 2.0812
rclavicle -1.2424e-014 -2.44505e-014
rhumerus -52.1037 15.9048 -86.4481
rradius 49.5371
rwrist 9.32242
rhand -28.0751 -48.4294
rfingers 7.12502
rthumb -1.45848 -78.4042
lclavicle -1.2424e-014 -2.44505e-014
lhumerus -46.0642 -11.9666 82.1025
lradius 67.0368
lwrist -0.0942586
lhand -35.0839 -44.3584
lfingers 7.12502
lthumb -8.22575 -14.5386
rfemur -33.3385 6.74175 17.2952
rtibia 37.7373
rfoot 10.5094 -5.37271
rtoes -18.2189
lfemur -44.4922 7.31518 -6.7646
ltibia 70.8934
lfoot -5.01469 14.3322
ltoes -6.50848
909
root -2.32123 19.4835 9.17849 15.2423 -10.7579 -0.209741
lowerback -4.98332 1.11886 4.17616
upperback -5.69472 1.35966 -0.579241
thorax -2.98283 0.512873 -2.90539
lowerneck -11.7194 -4.27412 -7.52219
upperneck 24.366 -5.41479 3.96333
head 9.99073 -2.7776 1.99716
rclavicle -1.28465e-014 -2.82274e-014
rhumerus -52.0479 15.2763 -86.4915
rradius 49.3459
rwrist 9.67121
rhand -28.4124 -47.7407
rfingers 7.12502
rthumb -1.78423 -77.713
lclavicle -1.28465e-014 -2.82274e-014
lhumerus -46.1033 -11.7968 81.9763
lradius 65.9976
lwrist 0.503538
lhand -35.1399 -44.542
lfingers 7.12502
lthumb -8.27976 -14.7242
rfemur -34.1549 6.80715 16.8259
rtibia 39.1261
rfoot 9.80255 -5.30668
rtoes -16.2234
lfemur -43.2034 6.95408 -7.08402
ltibia 68.2477
lfoot -3.79493 13.4285
ltoes -7.88346
910
root -2.26186 19.5455 9.21636 15.3581 -10.8448 -0.152265
lowerback -5.58653 1.05827 4.29411
upperback -5.74884 1.24605 -0.602957
thorax -2.71028 0.455928 -2.98931
lowerneck -11.5844 -4.21089 -7.38969
upperneck 24.6288 -5.32716 3.76844
head 10.044 -2.75138 1.92064
rclavicle 2.70037e-014 2.82274e-014
rhumerus -52.2331 14.6957 -86.535
rradius 49.1117
rwrist 10.1632
rhand -28.3593 -47.6108
rfingers 7.12502
rthumb -1.73298 -77.5835
lclavicle 2.70037e-014 2.82274e-014
lhumerus -46.4053 -11.5896 81.9226
lradius 65.0111
lwrist 0.578345
lhand -35.1224 -45.1769
lfingers 7.12502
lthumb -8.26286 -15.3585
rfemur -34.8254 6.44933 16.6113
rtibia 40.5233
rfoot 8.75948 -5.17511
rtoes -14.572
lfemur -41.8724 6.4245 -7.22294
ltibia 65.6042
lfoot -2.5372 12.3968
ltoes -9.13328
911
root -2.20868 19.5663 9.20186 15.1058 -11.1405 0.210716
lowerback -5.23679 0.990469 3.79597
upperback -5.79973 1.18604 -0.650934
thorax -2.96814 0.435948 -2.76768
lowerneck -11.4121 -4.1424 -7.33308
upperneck 24.7784 -5.2334 3.65354
head 10.0538 -2.71987 1.88602
rclavicle -8.66888e-015 7.55382e-015
rhumerus -52.3364 14.1814 -86.5938
rradius 48.8886
rwrist 10.3556
rhand -28.2174 -47.8691
rfingers 7.12502
rthumb -1.59591 -77.8428
lclavicle -8.66888e-015 7.55382e-015
lhumerus -46.5354 -11.4553 81.9001
lradius 63.938
lwrist 0.313262
lhand -35.4063 -45.0692
lfingers 7.12502
lthumb -8.53688 -15.2618
rfemur -35.4589 6.73182 16.0303
rtibia 41.9251
rfoot 7.9458 -5.44249
rtoes -14.9669
lfemur -40.6096 5.94761 -7.58866
ltibia 63.0707
lfoot -1.09867 11.1401
ltoes -9.93636
912
root -2.15897 19.5651 9.17071 14.758 -11.3615 0.609844
lowerback -4.81233 0.887424 3.20989
upperback -5.65142 1.07713 -0.713044
thorax -3.06345 0.401873 -2.51099
lowerneck -11.5075 -4.09241 -7.22433
upperneck 24.7738 -5.15593 3.56267
head 10.0596 -2.683 1.84386
rclavicle -1.07126e-014 1.25234e-014
rhumerus -52.0018 13.5755 -86.5466
rradius 48.6259
rwrist 10.5477
rhand -27.8591 -48.0694
rfingers 7.12502
rthumb -1.24983 -78.0455
lclavicle -1.07126e-014 1.25234e-014
lhumerus -46.2386 -11.4875 81.871
lradius 62.7357
lwrist 0.414257
lhand -35.8376 -44.6514
lfingers 7.12502
lthumb -8.95305 -14.8613
rfemur -36.0333 7.09526 15.4318
rtibia 43.35
rfoot 7.34269 -5.68696
rtoes -15.2869
lfemur -39.4162 5.3991 -7.95991
ltibia 60.6593
lfoot 0.420873 9.80091
ltoes -10.3084
913
root -2.09994 19.5832 9.20355 14.6971 -11.1582 0.422277
lowerback -5.47045 0.748257 3.64579
upperback -5.36813 0.852097 -0.638721
thorax -2.41366 0.292011 -2.67397
lowerneck -11.6687 -4.01782 -7.16255
upperneck 24.814 -5.01479 3.41374
head 10.0908 -2.62722 1.79615
rclavicle 1.33217e-014 -2.38542e-015
rhumerus -51.7266 13.1436 -86.5503
rradius 48.3184
rwrist 10.5201
rhand -28.1267 -48.026
rfingers 7.12502
rthumb -1.50829 -78.0004
lclavicle 1.33217e-014 -2.38542e-015
lhumerus -46.0074 -11.4707 81.8952
lradius 61.5896
lwrist 0.666753
lhand -36.3047 -44.7821
lfingers 7.12502
lthumb -9.40384 -15.0119
rfemur -36.2204 6.75721 15.5373
rtibia 44.6258
rfoot 6.41154 -5.5293
rtoes -15.2834
lfemur -38.098 4.77937 -7.79482
ltibia 58.2991
lfoot 1.60557 8.47189
ltoes -10.9951
